<?xml version="1.0" encoding="UTF-8"?><svg id="_レイヤー_1" xmlns="http://www.w3.org/2000/svg" viewBox="0 0 1663.99 680.01"><defs><style>.cls-1{fill:#e1eef9;}.cls-2{fill:#092330;}.cls-3{font-family:ArialMT, Arial;font-size:70.87px;letter-spacing:.3em;}.cls-4{font-family:HGPGothicE, HGPGothicE;font-size:354.33px;}.cls-5{fill:#1da1f2;}</style></defs><path class="cls-5" d="m297.74,582.17c-78.78,0-152.85-30.14-208.55-84.86C33.5,442.6,2.83,369.86,2.83,292.5s30.67-150.1,86.36-204.81C144.9,32.97,218.96,2.83,297.74,2.83s152.85,30.14,208.55,84.86c55.69,54.71,86.36,127.44,86.36,204.81s-30.67,150.1-86.36,204.81c-55.7,54.72-129.77,84.86-208.55,84.86Z"/><path class="cls-2" d="m297.74,5.67c39.44,0,77.71,7.59,113.72,22.55,34.78,14.45,66.02,35.14,92.84,61.49,26.82,26.35,47.87,57.02,62.57,91.17,15.22,35.35,22.94,72.9,22.94,111.61s-7.72,76.26-22.94,111.61c-14.7,34.15-35.76,64.83-62.57,91.17-26.82,26.35-58.06,47.04-92.84,61.49-36.01,14.96-74.27,22.55-113.72,22.55s-77.71-7.59-113.72-22.55c-34.78-14.45-66.02-35.14-92.84-61.49-26.82-26.35-47.87-57.02-62.57-91.17-15.22-35.35-22.94-72.9-22.94-111.61s7.72-76.26,22.94-111.61c14.7-34.15,35.76-64.83,62.57-91.17,26.82-26.35,58.06-47.04,92.84-61.49,36.01-14.96,74.27-22.55,113.72-22.55m0-5.67C133.3,0,0,130.96,0,292.5s133.3,292.5,297.74,292.5,297.74-130.96,297.74-292.5S462.18,0,297.74,0h0Z"/><polygon class="cls-2" points="254.7 578.19 297.22 44.75 339.74 578.19 254.7 578.19 254.7 578.19"/><line class="cls-2" x1="297.22" y1="578.19" x2="297.22" y2="44.75"/><path class="cls-2" d="m281.17,297.3s126.13-189.84,126.13-189.84l-91.94,208.55c-4.36,9.88-15.9,14.37-25.79,10.01-11.03-4.73-15.12-18.8-8.4-28.72h0Z"/><path class="cls-2" d="m283.06,440.43l-91.73-97.08,115.85,66.47c9.44,5.41,12.7,17.45,7.28,26.89-6.28,11.38-22.65,13.26-31.41,3.73h0Z"/><path class="cls-1" d="m86.34,230.23c18.48,16.25,17.89,47.13,17.89,47.13,0,0-30.56,4.55-49.04-11.7-18.48-16.25-17.89-47.13-17.89-47.13,0,0,30.56-4.55,49.04,11.7Z"/><path class="cls-1" d="m241.41,74.77c19.65,27.18,9.53,68.05,9.53,68.05,0,0-41.98-3.2-61.63-30.38-19.65-27.18-9.53-68.05-9.53-68.05,0,0,41.98,3.2,61.63,30.38Z"/><path class="cls-1" d="m377.14,285.3c20.63-13.41,50.21-4.51,50.21-4.51,0,0-3.87,30.65-24.5,44.06-20.63,13.41-50.21,4.51-50.21,4.51,0,0,3.87-30.65,24.5-44.06Z"/><path class="cls-1" d="m167.93,169.36c16.59,9.08,21.34,32.35,21.34,32.35,0,0-22.16,8.54-38.75-.54-16.59-9.08-21.34-32.35-21.34-32.35,0,0,22.16-8.54,38.75.54Z"/><path class="cls-1" d="m115.32,329.72c24.61,0,44.56,23.59,44.56,23.59,0,0-19.95,23.59-44.56,23.59-24.61,0-44.56-23.59-44.56-23.59,0,0,19.95-23.59,44.56-23.59Z"/><path class="cls-1" d="m185.64,311.03c-19.33-15.23-20.4-46.1-20.4-46.1,0,0,30.27-6.18,49.6,9.05,19.33,15.23,20.4,46.1,20.4,46.1,0,0-30.27,6.18-49.6-9.05Z"/><path class="cls-1" d="m457.96,182.52c25.19-8.61,53.87,8.55,53.87,8.55,0,0-12.16,31.13-37.35,39.74-25.19,8.61-53.87-8.55-53.87-8.55,0,0,12.16-31.13,37.35-39.74Z"/><path class="cls-1" d="m335.51,105.44c12.37-15.7,37.45-16.57,37.45-16.57,0,0,5.02,24.58-7.35,40.28-12.37,15.7-37.45,16.57-37.45,16.57,0,0-5.02-24.58,7.35-40.28Z"/><path class="cls-1" d="m534.64,246.6c14.98-11.59,38.24-6.63,38.24-6.63,0,0-1.03,23.76-16.01,35.35-14.98,11.59-38.24,6.63-38.24,6.63,0,0,1.03-23.76,16.01-35.35Z"/><path class="cls-1" d="m434.95,393.53c32.41,8.61,50.44,46.66,50.44,46.66,0,0-34.53,24.09-66.94,15.48-32.41-8.61-50.44-46.66-50.44-46.66,0,0,34.53-24.09,66.94-15.48Z"/><path class="cls-1" d="m219.83,440.18c-17.53,8.3-39.69-1.78-39.69-1.78,0,0,6.25-23.53,23.78-31.83,17.53-8.3,39.69,1.78,39.69,1.78,0,0-6.25,23.53-23.78,31.83Z"/><path class="cls-1" d="m124.4,445.38c-11.89,10-31.11,6.72-31.11,6.72,0,0,.05-19.5,11.93-29.51,11.89-10,31.11-6.72,31.11-6.72,0,0-.05,19.5-11.93,29.51Z"/><path class="cls-1" d="m490.21,321.82c24.09,5.01,38.82,32.17,38.82,32.17,0,0-24.33,19.03-48.43,14.02-24.09-5.01-38.82-32.17-38.82-32.17,0,0,24.33-19.03,48.43-14.02Z"/><text class="cls-3" transform="translate(37 657)"><tspan x="0" y="0">KINOSHITA</tspan></text><text class="cls-4" transform="translate(601 458)"><tspan x="0" y="0">木下塾</tspan></text></svg>